<?xml version="1.0" encoding="utf-8"?>
<!-- Generator: Adobe Illustrator 26.0.3, SVG Export Plug-In . SVG Version: 6.00 Build 0)  -->
<svg version="1.1" xmlns="http://www.w3.org/2000/svg" xmlns:xlink="http://www.w3.org/1999/xlink" x="0px" y="0px"
	 viewBox="0 0 566.9 566.9" style="enable-background:new 0 0 566.9 566.9;" xml:space="preserve">
<style type="text/css">
    *{fill:#03A89E;}
</style>
<g id="g3155">
	<g id="g5126" transform="matrix(0.8891207,0,0,0.8891207,19.212716,-24.986142)">
		<g id="layer1" transform="translate(5.8773403,20.698464)">
			<path id="path2186" d="M70.6,552.9c-12.8-29.6,7.5-142.9,36.8-204.7c-12.4-33.9-19.2-53.7-45.9-94.7
				c-41.1,47.7-85.7,69.3-64.2,38.9C92.2,157.8,110.8,128.3,107.1,97.9c-5-41.4,33.2-51.1,35.4,2c1.3,31.1,45.3,81.2,102.6,160.4
				c20.1,27.7-14.5,17.6-43.5-12.1c-20,32-40.8,69.5-53,100.1c25.8,150.5,60.6,245.7,29.6,216.6c-33.4-31.4-33.9-100.5-52.6-172.3
				C86,502.1,96.9,613.6,70.6,552.9z M179,222.1c-19.1-25.9-24-31.4-50.3-70c-21.3,39.3-26.2,43.9-45.8,73.6
				c22.5,34.9,29.3,45.2,45.3,84.3C146.5,269.7,154.2,260.7,179,222.1z"/>
		</g>
	</g>
	<path id="path3143" d="M157,201.5c37.7,48.9,24,62-13,26.7c-39.6,53.7-72.7,46-16.1-22.6C72,144.4,94,126.9,142.7,183.9
		C189.2,119.5,202.5,159.2,157,201.5z"/>
</g>
<g id="layer1_00000173160075894900107190000004429842795403583650_" transform="translate(0,-752.36218)">
	<path id="path3093" d="M514.1,1259.8c-5-9.9-10.8-17.9-13-17.9c-2.1,0-3.9-4.3-3.9-9.6s-1.7-9.6-3.8-9.6c-2.1,0-7.5-10.2-12.1-22.7
		c-13.6-37.5-14.5-38-32.6-19.3c-17.5,18-50.1,35.8-55.6,30.3c-1.9-1.9,0.9-7,6.1-11.4c5.3-4.4,15.4-15.8,22.6-25.5
		c7.2-9.6,15.8-20.5,19.1-24.1c12.7-13.8,16.7-26.8,22.5-73.1c3.3-26.3,7.9-52.7,10.3-58.8c6.8-17.3,5.4-44-2.3-44
		c-3.7,0-14.9,12.7-25,28.3c-11.1,17.2-24.5,31.2-34,35.8c-14,6.7-22.9,3.1-10.8-4.3c7.1-4.4,47.8-67.8,47.8-74.5
		c0-3.2-5.7-17.4-12.6-31.6c-8.7-17.7-11.1-27.4-7.7-30.8c3.4-3.4,6.5-2.9,10,1.5c2.8,3.5,12.9,15,22.5,25.5
		c14.9,16.3,16.9,17.4,13.8,7.2c-6.2-20.4-5.1-73,1.5-75.3c10.9-3.7,31.8,67.3,27.2,92c-2.6,14-0.5,17.8,21.4,38.8
		c13.4,12.8,24.3,25,24.3,27.2c0,5.5-19-0.9-34.3-11.7c-7-5-13.9-7.2-15.3-5c-11.1,17.9-17.9,149.1-8.7,166.2
		c14.2,26.2,34.9,88.8,33.4,100.8l-1.7,13.6L514.1,1259.8L514.1,1259.8z M313.6,1220.5c0.6-30.4-1-42-6.2-46.4
		c-5.7-4.7-6.6-4.2-5.3,2.8c1,5.4-5.9,14.8-18.8,25.6l-20.5,17l3.3-47.4c3.7-52.8,13.6-82,34.5-101.7c28.2-26.5,41-52.2,41.6-83.7
		c0.3-16.1,2.1-34.1,4-39.9c3-9.1,0.6-12-17.7-20.6c-20.1-9.4-21.5-11.4-27.2-38.4c-6.5-30.5-4-83.6,4.2-91.9
		c7.1-7.1,19.7,4.5,19.7,18.3c0,10.3,30.5,45,39.6,45.1c2.1,0,12.5-4.4,23.2-9.9c10.7-5.4,20.7-8.6,22.3-6.9
		c5.7,5.7,2.9,54.4-3.9,67c-3.8,7-12.8,15.9-20.1,19.6c-8.6,4.5-13.3,10.7-13.3,17.8c0,6-1.9,12.9-4.2,15.4
		c-2.3,2.5-5.3,17.9-6.7,34.2c-2.4,28.5-1.8,30.6,14.7,51.7c14.2,18.2,17.5,26.8,18.9,49.2c1.6,24.8-3.3,75.7-11.1,114.4
		c-3.1,15.5-11.6,21.8-11.6,8.6c0-3.8-4.1-9.8-9.2-13.4c-5.1-3.5-11.9-12.3-15.1-19.4c-8.7-19.1-12.7-15.9-15.6,12.2
		c-4.3,42.7-8.7,60.9-14.6,60.9C314.5,1261,313,1249,313.6,1220.5L313.6,1220.5z M305.7,1151.6c5.4-7.6,9.9-15.3,9.9-17.1
		c0-5.7,13.5-16.8,20.4-16.8c3.7,0,11.7,10.7,17.8,23.7c6.1,13.1,12.9,22.6,15.2,21.2c2.2-1.4,4-18.4,4-37.9
		c0-27.1-2.4-39.7-10.1-53.5c-5.5-9.9-10.7-18.8-11.5-19.6c-2.3-2.5-33.7,29-42.1,42.2c-9.2,14.5-23.2,71.7-17.5,71.7
		C294,1165.4,300.3,1159.2,305.7,1151.6L305.7,1151.6z M376.7,908.1c6.4-4.1,16.8-34.5,13.1-38.2c-1.2-1.2-6.7,3-12.2,9.2
		c-6.8,7.8-10.8,9.5-12.5,5.5c-1.4-3.3-6.1-6-10.6-6c-4.5,0-11.2-4.3-15-9.6c-3.8-5.3-8.6-9.6-10.6-9.6c-7.1,0-3.7,35.1,4.2,43.8
		C341.2,912.3,365.8,915,376.7,908.1z"/>
</g>
</svg>
